<svg xmlns="http://www.w3.org/2000/svg" width="558.30664" height="134.3894" viewBox="0 0 558.30664 134.3894">
    <title>Los Angeles Football Club wordmark (black)</title>
    <g id="wordmark" style="fill: #17191d" transform="translate(-5.19203 -13.44312)">
        <g id="los-angeles">
            <path d="M5.192,14.96094H21.20765v46.375H46.63881V74.79932H5.192Z"/>
            <path d="M48.92738,44.88037c0-18.03955,14.87158-30.623,32.11914-30.623,17.24707,0,32.11865,12.5835,32.11865,30.62305,0,18.03906-14.87158,30.71094-32.11865,30.71094C63.799,75.59131,48.92738,62.91943,48.92738,44.88037Zm47.87061,0c0-9.416-5.72022-16.71973-15.75147-16.71973-10.03174,0-15.752,7.30372-15.752,16.71973,0,9.41553,5.72021,16.80713,15.752,16.80713C91.07777,61.6875,96.798,54.2959,96.798,44.88037Z"/>
            <path d="M114.31166,64.5918l11.61572-8.71192c2.90381,3.60791,6.51172,6.51172,12.49561,6.51172,4.75195,0,7.56787-1.40771,7.56787-4.75195,0-2.55176-1.936-3.78369-5.896-5.10352l-7.04-2.376c-8.71142-2.90381-14.87158-8.18409-14.87158-18.03955,0-11.79151,9.76807-17.86329,20.41553-17.86329,10.56006,0,16.36767,3.7837,19.88769,7.91944l-9.15185,9.59179a12.40263,12.40263,0,0,0-9.856-4.312c-3.87158,0-5.80762,1.76026-5.80762,4.13623,0,2.2876,1.31983,3.43164,4.22412,4.39991l7.91944,2.63964c11.96777,3.96,16.01562,9.67969,16.01562,18.12745,0,10.99951-6.86377,18.91943-22.70312,18.91943C125.66322,75.6792,118.00746,69.51953,114.31166,64.5918Z"/>
            <path d="M192.45375,74.79932H176.79017l29.127-60.894c.26416-.61621.792-.61621,1.05615,0l29.03906,60.894H219.46888l-2.28808-5.104H194.65345Zm13.28759-30.9751L199.75746,57.728H211.901Z"/>
            <path d="M256.60511,44.96826V74.79932H241.55775V14.169c0-.52784.26416-.96778,1.23193-.17579l37.5752,30.9751V14.96094h15.04688V75.6792c0,.7041-.26368.96826-1.23145.17627Z"/>
            <path d="M346.89222,54.648H335.01234V42.32812h26.13477V67.31934c-5.54395,4.57617-12.75977,8.272-26.04688,8.272-17.59961,0-32.207-12.67188-32.207-30.71094,0-18.03955,14.60742-30.623,31.85449-30.623,10.56055,0,18.832,3.95948,24.02344,10.64747l-11.17578,9.67968a15.85612,15.85612,0,0,0-13.19922-6.42383c-9.76758,0-15.13574,7.30372-15.13574,16.71973,0,9.41553,5.45605,17.24707,16.01562,17.24707,5.80762,0,9.06348-1.14355,11.61621-2.37549Z"/>
            <path d="M369.15492,14.96094h41.97559V28.4248h-25.96V42.32812H406.818V55.08789H385.17054v6.248H412.362V74.79932h-43.207Z"/>
            <path d="M420.10609,14.96094h16.01563v46.375h25.43164V74.79932H420.10609Z"/>
            <path d="M468.945,14.96094h41.97558V28.4248h-25.96V42.32812H506.608V55.08789H484.96058v6.248H512.152V74.79932H468.945Z"/>
            <path d="M515.05629,64.5918l11.61621-8.71192c2.90332,3.60791,6.51172,6.51172,12.49511,6.51172,4.752,0,7.56836-1.40771,7.56836-4.75195,0-2.55176-1.93652-3.78369-5.89648-5.10352l-7.03906-2.376c-8.71192-2.90381-14.87207-8.18409-14.87207-18.03955,0-11.79151,9.76757-17.86329,20.416-17.86329,10.55957,0,16.36719,3.7837,19.88672,7.91944l-9.15137,9.59179a12.40154,12.40154,0,0,0-9.85546-4.312c-3.87208,0-5.8086,1.76026-5.8086,4.13623,0,2.2876,1.32031,3.43164,4.22461,4.39991l7.91992,2.63964c11.9668,3.96,16.01563,9.67969,16.01563,18.12745,0,10.99951-6.86426,18.91943-22.7041,18.91943C526.40883,75.6792,518.75258,69.51953,515.05629,64.5918Z"/>
        </g>
        <g id="football-club">
            <path d="M5.27308,97.46338H38.99867v11.16894H18.55922v11.53321H36.58949v11.16894H18.55922v15.76758H5.27308Z"/>
            <path d="M41.77259,122.28271c0-14.96484,12.33643-25.40332,26.64405-25.40332s26.64453,10.43848,26.64453,25.40332-12.33691,25.47657-26.64453,25.47657S41.77259,137.24756,41.77259,122.28271Zm39.71094,0c0-7.81054-4.74463-13.86914-13.06689-13.86914-8.32129,0-13.06641,6.0586-13.06641,13.86914s4.74512,13.94239,13.06641,13.94239C76.7389,136.2251,81.48353,130.09326,81.48353,122.28271Z"/>
            <path d="M98.20179,122.28271c0-14.96484,12.33692-25.40332,26.64454-25.40332s26.644,10.43848,26.644,25.40332-12.33643,25.47657-26.644,25.47657S98.20179,137.24756,98.20179,122.28271Zm39.71094,0c0-7.81054-4.74512-13.86914-13.0664-13.86914-8.32227,0-13.0669,6.0586-13.0669,13.86914s4.74463,13.94239,13.0669,13.94239C133.16761,136.2251,137.91273,130.09326,137.91273,122.28271Z"/>
            <path d="M166.09144,108.63232H152.95179V97.46338h39.56446v11.16894H179.3766v38.46973H166.09144Z"/>
            <path d="M197.84633,97.46338h20.29394c9.85449,0,16.27832,4.52637,16.27832,12.11816,0,5.54785-2.48193,8.10254-5.69385,9.63575,5.40186,1.53222,10.00049,5.40136,10.00049,12.99316,0,9.49023-7.37256,14.8916-19.709,14.8916H197.84633Zm19.27148,18.32226c2.91992,0,4.23437-1.46,4.23437-3.79589s-1.168-4.01465-4.08789-4.01465H210.694v7.81054Zm1.60645,20.80469c5.10937,0,6.71582-2.18945,6.71582-5.62109,0-3.43067-1.6792-5.54785-6.71582-5.54785H210.694v11.16894Z"/>
            <path d="M252.01136,147.10205H239.01771l24.1626-50.51465c.21875-.51074.65674-.51074.876,0l24.08886,50.51465H274.42152l-1.89746-4.2334h-18.6875Zm11.02247-25.69531L258.07,132.94092h10.07422Z"/>
            <path d="M292.08851,97.46338h13.28614v38.46973h21.0957v11.16894H292.08851Z"/>
            <path d="M330.12172,97.46338h13.28613v38.46973h21.0957v11.16894H330.12172Z"/>
            <path d="M412.026,147.75928c-13.94238,0-25.84082-10.51172-25.84082-25.47657a25.03094,25.03094,0,0,1,25.11133-25.40332c10.73047,0,17.29981,4.52637,21.46094,10.65821l-10.001,6.78808c-1.89746-2.91992-4.96387-5.91211-11.24121-5.91211-7.2998,0-11.75293,6.0586-11.75293,13.86914s4.59863,13.94239,12.19043,13.94239c6.42383,0,9.5625-2.91992,11.67969-6.86133l10.21972,6.56934C428.96156,144.18213,422.09926,147.75928,412.026,147.75928Z"/>
            <path d="M437.0641,97.46338h13.28613v38.46973h21.09668v11.16894H437.0641Z"/>
            <path d="M473.34633,127.90381V97.46338h13.28613v30.29394c0,5.6211,2.627,8.833,8.24805,8.833s8.249-3.21191,8.249-8.833V97.46338h13.28613v30.44043c0,13.3584-9.125,19.92871-21.53515,19.92871C482.47133,147.83252,473.34633,141.26221,473.34633,127.90381Z"/>
            <path d="M522.61976,97.46338h20.29395c9.85449,0,16.27832,4.52637,16.27832,12.11816,0,5.54785-2.48145,8.10254-5.69434,9.63575,5.40235,1.53222,10.001,5.40136,10.001,12.99316,0,9.49023-7.37207,14.8916-19.709,14.8916H522.61976Zm19.27149,18.32226c2.91992,0,4.23437-1.46,4.23437-3.79589s-1.168-4.01465-4.08789-4.01465h-6.57031v7.81054Zm1.60644,20.80469c5.10938,0,6.71582-2.18945,6.71582-5.62109,0-3.43067-1.67871-5.54785-6.71582-5.54785h-8.03027v11.16894Z"/>
        </g>
    </g>
</svg>
