<?xml version="1.0" encoding="UTF-8" standalone="no"?>
<svg
   xmlns:dc="http://purl.org/dc/elements/1.1/"
   xmlns:cc="http://creativecommons.org/ns#"
   xmlns:rdf="http://www.w3.org/1999/02/22-rdf-syntax-ns#"
   xmlns:svg="http://www.w3.org/2000/svg"
   xmlns="http://www.w3.org/2000/svg"
   xmlns:sodipodi="http://sodipodi.sourceforge.net/DTD/sodipodi-0.dtd"
   xmlns:inkscape="http://www.inkscape.org/namespaces/inkscape"
   version="1.1"
   id="svg2"
   xml:space="preserve"
   width="1814.1733"
   height="1889.76"
   viewBox="0 0 1814.1733 1889.76"
   sodipodi:docname="victor-sport-seeklogo.com.ai"><metadata
     id="metadata8"><rdf:RDF><cc:Work
         rdf:about=""><dc:format>image/svg+xml</dc:format><dc:type
           rdf:resource="http://purl.org/dc/dcmitype/StillImage" /></cc:Work></rdf:RDF></metadata><defs
     id="defs6"><clipPath
       clipPathUnits="userSpaceOnUse"
       id="clipPath18"><path
         d="M 0,1417.32 H 1360.63 V 0 H 0 Z"
         id="path16" /></clipPath></defs><sodipodi:namedview
     pagecolor="#ffffff"
     bordercolor="#666666"
     borderopacity="1"
     objecttolerance="10"
     gridtolerance="10"
     guidetolerance="10"
     inkscape:pageopacity="0"
     inkscape:pageshadow="2"
     inkscape:window-width="640"
     inkscape:window-height="480"
     id="namedview4" /><g
     id="g10"
     inkscape:groupmode="layer"
     inkscape:label="victor-sport-seeklogo.com"
     transform="matrix(1.3333333,0,0,-1.3333333,0,1889.76)"><g
       id="g12"><g
         id="g14"
         clip-path="url(#clipPath18)"><g
           id="g20"
           transform="translate(984.5654,982)"><path
             d="m 0,0 c 0.25,-3.11 -22.69,-27.28 -25,-30 -57.74,-67.9 -120.851,-142.38 -178,-206 -12.8,34.27 -43.9,62.68 -87,66 -50.06,3.86 -86.76,-25.78 -103,-65 -9.2,6.47 -17.32,16.97 -26,27 -58.2,67.26 -117.35,139.03 -177,206 v 2 c 12.09,15.58 60,23 60,23 0,0 19.9,1.33 26,0 65.91,-8.48 96.59,-52.75 132,-94 9,-10.48 18.83,-22.81 30,-36 15.38,-18.16 29.13,-37.53 65,-29 18.45,4.39 31.52,25.12 44,40 8.74,10.42 18.3,20.85 27,31 34.34,40.06 60.38,79.28 125,88 0,0 8.77,1 13.149,1 4.621,0 13.851,-1 13.851,-1 6.57,-0.67 9.899,-1.5 15.97,-2.5 C -37.91,19.52 -31.34,18.22 -25,16 -18.54,13.75 -0.44,5.55 0,0"
             style="fill:#000000;fill-opacity:1;fill-rule:nonzero;stroke:none"
             id="path22" /></g><g
           id="g24"
           transform="translate(676.5654,793)"><path
             d="m 0,0 c 57.06,6.57 99.229,-36.9 94,-93 -3.311,-35.56 -31.76,-66.1 -65,-73 -53.61,-11.12 -109.52,29.34 -103,93 1.78,17.34 10.08,32.04 15,39 11.38,16.13 30.57,30.73 59,34"
             style="fill:#000000;fill-opacity:1;fill-rule:nonzero;stroke:none"
             id="path26" /></g></g></g></g></svg>
